<?xml version="1.0" standalone="no"?>
<!DOCTYPE svg PUBLIC "-//W3C//DTD SVG 20010904//EN"
 "http://www.w3.org/TR/2001/REC-SVG-20010904/DTD/svg10.dtd">
<svg version="1.0" xmlns="http://www.w3.org/2000/svg"
 width="632.000000pt" height="632.000000pt" viewBox="0 0 632.000000 632.000000"
 preserveAspectRatio="xMidYMid meet">
<metadata>
Created by potrace 1.14, written by Peter Selinger 2001-2017
</metadata>
<g transform="translate(0.000000,632.000000) scale(0.100000,-0.100000)"
fill="#000000" stroke="none">
<path d="M2240 5754 c-14 -2 -63 -9 -110 -15 -256 -33 -504 -112 -750 -237
-103 -53 -283 -164 -305 -188 -5 -6 -26 -22 -45 -35 -19 -13 -40 -28 -46 -34
-7 -5 -36 -30 -65 -55 -87 -73 -235 -225 -306 -313 -36 -45 -71 -86 -78 -92
-6 -5 -27 -35 -46 -66 -19 -31 -60 -95 -92 -143 -31 -48 -57 -90 -57 -95 0 -4
-12 -30 -26 -57 -57 -106 -102 -201 -114 -239 -7 -22 -23 -67 -35 -100 -65
-173 -112 -360 -125 -490 -6 -55 -12 -113 -15 -130 -22 -137 -22 -475 1 -625
2 -19 9 -78 14 -131 5 -52 11 -102 14 -110 3 -8 7 -25 10 -39 2 -14 9 -45 16
-70 7 -25 12 -45 11 -45 0 0 20 -58 45 -130 25 -71 49 -146 53 -165 4 -19 16
-49 27 -65 10 -16 18 -30 16 -32 -1 -2 13 -33 32 -71 92 -182 130 -250 176
-313 27 -38 50 -72 50 -75 0 -9 79 -113 101 -134 9 -8 31 -35 50 -59 40 -53
201 -216 281 -284 30 -26 95 -77 144 -112 49 -36 95 -69 102 -75 6 -6 12 -7
12 -3 0 4 4 4 8 -2 10 -15 70 -55 80 -55 5 0 21 -9 36 -21 14 -11 26 -18 26
-14 0 3 13 -3 29 -14 58 -42 276 -131 429 -177 223 -66 416 -93 663 -92 202 1
342 17 519 59 114 28 320 93 345 109 6 3 42 19 80 35 39 16 72 32 75 36 3 3
27 16 53 28 27 12 73 38 102 57 30 19 57 34 60 34 5 0 47 29 90 63 5 4 39 29
75 55 36 25 67 49 70 52 3 3 32 28 64 55 75 63 210 198 239 239 12 17 36 47
54 66 61 65 93 104 93 113 0 5 26 45 59 90 52 73 85 131 192 335 15 30 35 75
43 100 8 26 27 76 42 112 15 36 30 81 34 100 4 19 22 89 39 155 42 158 68 323
81 508 6 83 13 153 15 155 2 2 25 -1 51 -6 57 -12 190 -13 262 -2 29 5 66 18
82 30 33 23 12 24 260 -6 110 -14 124 -12 125 16 l0 25 -163 1 c-89 1 -165 4
-169 8 -3 3 1 14 10 24 9 10 22 32 27 49 11 30 13 31 58 27 26 -3 56 -6 67 -9
11 -2 59 -7 108 -11 l87 -7 0 27 0 26 -150 0 -150 0 6 33 c4 17 6 40 6 50 -1
16 6 17 61 12 34 -4 73 -9 87 -11 14 -2 55 -7 93 -10 l67 -6 0 29 0 28 -154
-1 c-152 -1 -155 -1 -160 21 -3 12 -24 41 -47 63 -35 33 -51 41 -98 48 -31 4
-59 8 -63 10 -5 1 -17 2 -27 3 -14 1 -18 6 -14 22 5 20 11 21 97 16 50 -2 101
-7 114 -10 19 -5 24 -1 29 24 l6 31 71 -7 c39 -4 80 -9 91 -11 10 -2 49 -6 85
-9 36 -4 73 -9 83 -11 11 -3 17 0 17 10 0 8 3 21 6 30 5 14 -13 16 -165 16
l-171 0 6 38 c9 65 9 65 72 58 31 -3 82 -8 112 -12 30 -3 76 -9 103 -13 49 -9
55 -5 62 29 4 19 -2 20 -198 21 -111 0 -211 3 -222 5 -11 2 -63 5 -115 6 -110
2 -182 -17 -225 -60 -33 -34 -75 -156 -76 -226 -2 -111 43 -153 183 -170 60
-8 72 -15 63 -39 -8 -19 -122 -21 -197 -4 -31 8 -61 11 -66 8 -5 -3 -13 -21
-17 -38 -11 -55 -25 -37 -25 32 l0 65 31 0 30 0 -21 30 c-11 16 -27 27 -34 24
-10 -4 -15 6 -18 30 -3 27 0 36 14 39 11 3 18 15 18 31 0 21 -5 26 -24 26 -20
0 -24 6 -28 36 -4 35 -4 35 28 31 29 -4 34 -1 43 24 l10 29 -50 0 c-35 0 -49
4 -49 14 0 7 -3 27 -6 43 l-6 30 54 -8 c86 -12 99 -11 105 11 3 11 10 21 17
22 6 1 -33 4 -88 7 l-98 6 -30 105 c-19 65 -26 106 -20 108 10 3 -18 88 -59
179 -10 23 -19 48 -19 55 0 7 -22 56 -50 108 -27 52 -64 125 -83 162 -34 64
-69 118 -94 146 -7 7 -13 17 -13 21 0 4 -11 21 -25 37 -14 16 -25 33 -25 38 0
9 -73 101 -99 126 -9 8 -29 32 -45 52 -34 45 -181 193 -236 238 -21 18 -50 42
-63 53 -13 12 -36 31 -51 42 -16 11 -49 36 -75 55 -54 42 -179 119 -271 168
-36 18 -69 37 -75 41 -5 4 -37 18 -70 31 -33 13 -69 28 -80 33 -77 40 -392
126 -520 143 -33 4 -69 9 -80 11 -29 6 -436 11 -465 7z m415 -38 c112 -12 150
-18 245 -38 281 -58 505 -148 757 -304 59 -37 110 -69 113 -73 3 -4 30 -24 60
-46 30 -22 72 -55 92 -74 21 -18 46 -39 55 -46 27 -19 93 -83 93 -90 0 -3 -36
26 -80 67 -249 225 -591 411 -925 503 -235 64 -353 79 -615 79 -236 0 -278 -4
-483 -45 -197 -40 -394 -111 -577 -206 -253 -132 -442 -274 -646 -485 -70 -73
-118 -119 -107 -103 22 31 220 234 288 295 352 315 865 535 1320 566 50 4 91
8 93 9 5 4 255 -3 317 -9z m1529 -782 c50 -57 42 -57 -14 1 -24 25 -40 45 -35
44 6 0 27 -21 49 -45z m-3615 -179 c-28 -36 -53 -65 -56 -65 -5 0 47 70 81
108 38 43 26 21 -25 -43z m3732 38 c13 -16 12 -17 -3 -4 -10 7 -18 15 -18 17
0 8 8 3 21 -13z m-3938 -348 c-3 -9 -8 -14 -10 -11 -3 3 -2 9 2 15 9 16 15 13
8 -4z"/>
<path d="M5794 3748 c-4 -24 -8 -45 -9 -48 0 -3 -4 -26 -8 -51 -9 -56 -11 -66
-37 -209 -25 -141 -27 -155 -35 -255 l-6 -80 91 1 c50 1 93 3 95 6 3 2 12 53
21 111 9 59 20 107 24 107 6 0 40 -114 55 -187 5 -25 12 -33 28 -34 214 -6
197 -16 168 100 -10 42 -24 99 -31 126 -16 67 -16 66 -24 96 -8 30 28 104 117
241 84 128 87 118 -39 118 l-109 0 -40 -67 c-22 -37 -46 -82 -54 -100 -7 -18
-17 -33 -22 -33 -11 0 -11 4 0 55 5 22 12 57 15 77 3 21 7 43 8 50 2 10 -22
14 -99 16 l-101 3 -8 -43z"/>
<path d="M5315 3541 c2 -5 42 -12 87 -16 46 -5 85 -9 88 -10 3 -1 41 -5 85 -9
44 -4 92 -10 106 -12 20 -3 28 1 32 15 10 38 -3 41 -206 40 -109 0 -195 -4
-192 -8z"/>
<path d="M6020 2889 c0 -3 8 -9 19 -12 18 -4 19 -18 18 -236 0 -228 0 -231
-21 -231 -13 0 -16 -3 -9 -8 6 -4 35 -5 65 -3 29 3 43 7 31 9 -22 3 -23 8 -23
83 0 44 4 78 8 75 5 -3 22 -24 38 -48 16 -24 34 -48 39 -54 6 -6 19 -23 30
-37 16 -22 27 -27 60 -26 27 1 34 3 20 7 -21 7 -91 80 -138 144 l-27 37 29 43
c42 62 71 86 111 91 19 2 4 4 -35 4 -38 0 -62 -1 -52 -4 9 -2 17 -6 17 -8 0
-2 -21 -35 -47 -72 l-48 -68 -3 157 c-2 154 -3 158 -25 162 -30 6 -57 4 -57
-5z"/>
<path d="M5015 2724 c-51 -17 -60 -33 -57 -103 2 -33 16 -46 64 -60 71 -21 88
-36 88 -81 0 -43 -20 -70 -53 -70 -17 0 -19 -2 -8 -9 18 -11 42 -3 75 26 20
17 26 32 26 61 0 45 -26 75 -80 93 -59 21 -80 39 -80 70 0 16 9 38 20 49 36
36 110 20 110 -25 0 -13 4 -26 9 -29 10 -7 9 59 -1 69 -16 17 -78 22 -113 9z"/>
<path d="M4949 2472 c-3 -19 0 -40 7 -51 14 -19 74 -35 74 -19 0 4 -8 8 -17 8
-30 1 -51 24 -55 61 l-3 34 -6 -33z"/>
</g>
</svg>
